<svg xmlns="http://www.w3.org/2000/svg" viewBox="0 0 1091 246" width="1091" height="246" role="img"><title>Mintum</title><g transform="translate(47,47)"><path d="M0 152 L0 0 L76 79 L152 0 L152 152" fill="none" stroke="#0EA5E9" stroke-width="38" stroke-linecap="round" stroke-linejoin="round"/><g transform="translate(235,152)"><path d="M18 -0L18 -146L56.81 -146L93.41 -58.81L97 -58.81L133.41 -146L172.81 -146L172.81 -0L144.59 -0L144.59 -124.59L148.19 -124.19L108.81 -29.81L79.81 -29.81L40.19 -124.19L44 -124.59L44 -0L18 -0ZM211.8 -0L211.8 -108.59L239.61 -108.59L239.61 -0L211.8 -0ZM196.61 -87.81L196.61 -108.59L239.61 -108.59L239.61 -87.81L196.61 -87.81ZM221.99 -121.59Q213.8 -121.59 209.89 -125.88Q205.99 -130.19 205.99 -136.81Q205.99 -143.41 209.89 -147.59Q213.8 -151.81 221.99 -151.81Q230.21 -151.81 233.99 -147.59Q237.8 -143.41 237.8 -136.81Q237.8 -130.19 233.99 -125.88Q230.21 -121.59 221.99 -121.59ZM271.61 -0L271.61 -108.59L293.61 -108.59L293.61 -62L291.61 -62Q291.61 -78.59 295.99 -89.69Q300.39 -100.81 309.08 -106.41Q317.8 -112 330.8 -112L331.99 -112Q351.39 -112 361.39 -99.5Q371.39 -87 371.39 -62.19L371.39 -0L343.61 -0L343.61 -64.59Q343.61 -74.59 337.89 -80.78Q332.21 -87 322.21 -87Q311.99 -87 305.67 -80.69Q299.39 -74.41 299.39 -63.81L299.39 -0L271.61 -0ZM448.4 1.41Q433.4 1.41 423.68 -2.5Q413.99 -6.41 409.18 -15.69Q404.4 -25 404.4 -40.81L404.59 -139.19L430.59 -139.19L430.4 -39Q430.4 -31 434.68 -26.69Q438.99 -22.41 446.99 -22.41L463.99 -22.41L463.99 1.41L448.4 1.41ZM387.21 -88.19L387.21 -108.59L463.99 -108.59L463.99 -88.19L387.21 -88.19ZM524.41 3.41Q505.6 3.41 495.29 -9Q485.01 -21.41 485.01 -45.81L485.01 -108.81L512.79 -108.81L512.79 -43.41Q512.79 -33.41 518.38 -27.5Q524.01 -21.59 533.6 -21.59Q543.19 -21.59 549.29 -27.78Q555.41 -34 555.41 -44.59L555.41 -108.81L583.19 -108.81L583.19 -0L561.19 -0L561.19 -46.19L563.41 -46.19Q563.41 -29.81 559.19 -18.81Q555.01 -7.81 546.6 -2.19Q538.19 3.41 525.6 3.41L524.41 3.41ZM615.21 -0L615.21 -108.59L637.21 -108.59L637.21 -62L635.21 -62Q635.21 -78.41 639.4 -89.5Q643.59 -100.59 651.9 -106.28Q660.21 -112 672.59 -112L673.81 -112Q686.4 -112 694.68 -106.28Q702.99 -100.59 707.09 -89.5Q711.21 -78.41 711.21 -62L704.21 -62Q704.21 -78.41 708.49 -89.5Q712.81 -100.59 721.09 -106.28Q729.4 -112 741.81 -112L742.99 -112Q755.59 -112 763.99 -106.28Q772.4 -100.59 776.68 -89.5Q780.99 -78.41 780.99 -62L780.99 -0L753.21 -0L753.21 -64.59Q753.21 -74.81 747.99 -80.91Q742.81 -87 733.21 -87Q723.59 -87 717.77 -80.69Q711.99 -74.41 711.99 -63.81L711.99 -0L684.21 -0L684.21 -64.59Q684.21 -74.81 678.99 -80.91Q673.81 -87 664.21 -87Q654.59 -87 648.77 -80.69Q642.99 -74.41 642.99 -63.81L642.99 -0L615.21 -0Z" fill="#EAF2FB"/></g></g></svg>